<svg width="18" height="19" viewBox="0 0 18 19" fill="none" xmlns="http://www.w3.org/2000/svg">
<path d="M14.3622 0.562927H3.63555C1.62655 0.562927 0 2.16503 0 4.14384V14.7115C0 16.6881 1.62655 18.2902 3.63555 18.2902H14.3645C16.3712 18.2902 18 16.6881 18 14.7093V4.14384C17.9977 2.16503 16.3712 0.562927 14.3622 0.562927Z" fill="url(#paint0_linear_30_419)"/>
<path d="M8.92238 4.63586L9.28684 4.01541C9.51181 3.62762 10.0135 3.49688 10.4072 3.71847C10.8009 3.94007 10.9336 4.43421 10.7087 4.822L7.19685 10.8094H9.73678C10.5602 10.8094 11.0214 11.7622 10.6637 12.4226H3.2171C2.76265 12.4226 2.3982 12.0636 2.3982 11.616C2.3982 11.1684 2.76265 10.8094 3.2171 10.8094H5.30484L7.9775 6.24683L7.14285 4.81978C6.91788 4.432 7.05062 3.94228 7.44432 3.71626C7.83802 3.49467 8.33521 3.62541 8.56468 4.01319L8.92238 4.63586ZM5.76378 13.2535L4.97638 14.5986C4.7514 14.9864 4.24972 15.1171 3.85602 14.8955C3.46231 14.6739 3.32958 14.1798 3.55455 13.792L4.13948 12.7948C4.8009 12.5932 5.33858 12.7483 5.76378 13.2535ZM12.5444 10.8138H14.6749C15.1294 10.8138 15.4938 11.1728 15.4938 11.6204C15.4938 12.068 15.1294 12.427 14.6749 12.427H13.4916L14.2902 13.792C14.5152 14.1798 14.3825 14.6695 13.9887 14.8955C13.595 15.1171 13.0979 14.9864 12.8684 14.5986C11.5231 12.3007 10.5129 10.5811 9.84252 9.43552C9.15635 8.26995 9.64679 7.09995 10.1305 6.7033C10.6682 7.61183 11.4713 8.98347 12.5444 10.8138Z" fill="white"/>
<defs>
<linearGradient id="paint0_linear_30_419" x1="9" y1="0.562927" x2="9" y2="18.2902" gradientUnits="userSpaceOnUse">
<stop stop-color="#18BFFB"/>
<stop offset="1" stop-color="#2072F3"/>
</linearGradient>
</defs>
</svg>
